<?xml version="1.0" encoding="UTF-8" standalone="no"?>
<!-- Created with Inkscape (http://www.inkscape.org/) -->

<svg
   xmlns:dc="http://purl.org/dc/elements/1.1/"
   xmlns:cc="http://creativecommons.org/ns#"
   xmlns:rdf="http://www.w3.org/1999/02/22-rdf-syntax-ns#"
   xmlns:svg="http://www.w3.org/2000/svg"
   xmlns="http://www.w3.org/2000/svg"
   xmlns:sodipodi="http://sodipodi.sourceforge.net/DTD/sodipodi-0.dtd"
   xmlns:inkscape="http://www.inkscape.org/namespaces/inkscape"
   width="744.09448819"
   height="1052.3622047"
   id="svg2"
   version="1.1"
   inkscape:version="0.48.4 r9939"
   sodipodi:docname="blob.svg">
  <defs
     id="defs4" />
  <sodipodi:namedview
     id="base"
     pagecolor="#ffffff"
     bordercolor="#666666"
     borderopacity="1.0"
     inkscape:pageopacity="0.0"
     inkscape:pageshadow="2"
     inkscape:zoom="1.5618933"
     inkscape:cx="270.3892"
     inkscape:cy="643.05302"
     inkscape:document-units="px"
     inkscape:current-layer="layer1"
     showgrid="false"
     inkscape:window-width="833"
     inkscape:window-height="929"
     inkscape:window-x="1943"
     inkscape:window-y="27"
     inkscape:window-maximized="0" />
  <metadata
     id="metadata7">
    <rdf:RDF>
      <cc:Work
         rdf:about="">
        <dc:format>image/svg+xml</dc:format>
        <dc:type
           rdf:resource="http://purl.org/dc/dcmitype/StillImage" />
        <dc:title></dc:title>
      </cc:Work>
    </rdf:RDF>
  </metadata>
  <g
     inkscape:label="Layer 1"
     inkscape:groupmode="layer"
     id="layer1">
    <g
       id="g3163"
       transform="matrix(2.114908,0,0,2.114908,-61.259228,-567.93579)">
      <path
         inkscape:connector-curvature="0"
         id="path2985"
         d="m 237.62376,356.32258 c 4.84437,-0.40393 2.7489,-5.7192 4.9505,-7.92079 0.84142,-0.84143 2.12887,-1.13878 2.97029,-1.9802 1.16685,-1.16684 1.89639,-2.7075 2.9703,-3.9604 0.91125,-1.06312 2.04825,-1.91653 2.9703,-2.97029 8.29705,-9.48235 0.11104,-0.72732 6.93069,-8.9109 2.03565,-2.44278 3.1981,-2.66508 5.9406,-4.95049 0.71711,-0.5976 1.32013,-1.32013 1.98019,-1.9802 0.9901,-0.66006 2.01834,-1.26623 2.9703,-1.9802 0.37339,-0.28004 0.66007,-0.66006 0.9901,-0.9901 0.66007,-0.66006 1.42011,-1.23341 1.9802,-1.98019 0.72355,-0.96474 0.76886,-2.36463 1.9802,-2.9703 0.59038,-0.29519 1.51346,0.46674 1.98019,0 0.23337,-0.23337 -0.23336,-0.75673 0,-0.9901 0.23337,-0.23337 0.75673,0.23337 0.9901,0 0.23337,-0.23337 -0.23337,-0.75673 0,-0.9901 0.23337,-0.23337 0.75673,0.23337 0.9901,0 0.46674,-0.46674 -0.46674,-1.51346 0,-1.9802 0.46674,-0.46673 1.38982,0.29519 1.9802,0 0.41746,-0.20873 0.57264,-0.78136 0.9901,-0.9901 0.29519,-0.14759 0.677,0.10437 0.9901,0 0.7001,-0.23336 1.26425,-0.81111 1.9802,-0.99009 0.64035,-0.16009 1.32013,0 1.98019,0 0.66007,0 1.32014,0 1.9802,0 3.30033,0 6.60066,0 9.90099,0 0.9901,0 1.9802,0 2.9703,0 0.9901,0 1.99015,-0.14003 2.9703,0 5.69254,0.81322 2.19218,0.57454 5.94059,1.98019 1.95441,0.73291 3.9604,1.32014 5.94059,1.9802 6.69803,2.23268 -1.43188,-0.71594 7.9208,3.9604 1.58965,0.79482 3.32639,1.25837 4.95049,1.9802 1.34874,0.59944 2.56019,1.51346 3.9604,1.98019 1.59648,0.53217 3.3748,0.39922 4.95049,0.9901 1.11419,0.41782 1.9802,1.32013 2.9703,1.9802 1.9802,1.32013 3.89984,2.73595 5.94059,3.9604 0.63281,0.37968 1.36617,0.58074 1.9802,0.9901 0.38835,0.25889 0.66007,0.66006 0.9901,0.99009 0.33003,0.33004 0.7312,0.60175 0.9901,0.9901 2.35096,0.83783 0.44751,1.88512 0.9901,2.9703 0.20873,0.41746 0.78137,0.57264 0.9901,0.9901 0.29003,0.58007 -0.1824,4.22089 0,4.95049 0.17898,0.71595 0.81111,1.26426 0.9901,1.9802 0.24013,0.96054 0,1.9802 0,2.9703 0,5.61056 0,11.22112 0,16.83168 0,0.24013 -0.0318,2.93846 0,2.9703 0.23337,0.23337 0.69491,-0.1476 0.9901,0 0.41746,0.20873 0.57263,0.78137 0.99009,0.9901 0.2952,0.14759 0.75673,-0.23337 0.9901,0 1.32014,1.32013 -2.10031,0.95006 0.9901,1.9802 0.6262,0.20873 1.33984,-0.16009 1.9802,0 1.43188,0.35797 2.52851,1.62222 3.9604,1.98019 0.64035,0.16009 1.354,-0.20873 1.98019,0 0.44279,0.1476 0.57264,0.78137 0.9901,0.9901 0.93348,0.46674 2.03683,0.52337 2.9703,0.9901 0.41746,0.20873 0.54731,0.84251 0.9901,0.9901 0.62619,0.20873 1.33984,-0.16009 1.9802,0 1.43188,0.35797 2.56018,1.51346 3.96039,1.9802 0.3131,0.10437 0.67701,-0.10437 0.9901,0 0.70011,0.23337 1.36617,0.58074 1.9802,0.9901 1.61704,1.07802 0.40644,1.46743 2.9703,1.9802 0.97087,0.19417 2.00976,-0.24014 2.97029,0 0.45281,0.1132 0.60176,0.7312 0.9901,0.9901 0.61404,0.40935 1.32014,0.66006 1.9802,0.99009 0.66007,0.33004 1.28009,0.75674 1.9802,0.9901 0.62619,0.20874 1.51346,-0.46673 1.9802,0 0.23337,0.23337 -0.23337,0.75673 0,0.9901 0.23337,0.23337 0.66006,0 0.9901,0 1.18377,0 5.29439,-0.2154 5.94059,0 0.70011,0.23337 1.36617,0.58075 1.9802,0.9901 0.38835,0.2589 0.54731,0.84251 0.9901,0.9901 0.62619,0.20873 1.33984,-0.16009 1.9802,0 0.71594,0.17899 1.28009,0.75673 1.98019,0.9901 1.01505,0.33835 6.24334,-0.34368 6.9307,0 0.29519,0.1476 -0.23337,0.75673 0,0.9901 0.23337,0.23337 0.66006,0 0.9901,0 0.9901,0 1.98019,0 2.97029,0 0.33004,0 0.66007,0 0.9901,0 0.33004,0 0.69491,-0.1476 0.9901,0 0.41746,0.20873 0.57264,0.78137 0.9901,0.9901 0.59038,0.29519 1.38982,-0.29519 1.9802,0 0.41746,0.20873 0.57263,0.78137 0.9901,0.9901 0.29519,0.14759 0.66006,0 0.9901,0 0.33003,0.33003 0.60175,0.7312 0.9901,0.9901 0.61403,0.40935 1.28009,0.75673 1.98019,0.99009 0.3131,0.10437 0.75673,-0.23336 0.9901,0 0.23337,0.23337 -0.23337,0.75674 0,0.9901 0.23337,0.23337 0.69491,-0.14759 0.9901,0 4.12056,2.06028 -1.05845,-0.0684 0.9901,1.9802 0.23337,0.23337 0.66007,0 0.9901,0 0,0.33004 -0.1476,0.69491 0,0.9901 2.06028,4.12056 -0.0683,-1.05845 1.9802,0.9901 0.23337,0.23337 -0.23337,0.75673 0,0.9901 0.23337,0.23337 0.75673,-0.23337 0.9901,0 0.0318,0.0318 0,2.73017 0,2.9703 0,3.63036 0,7.26072 0,10.89109 0,0.66006 0,1.32013 0,1.98019 0,0.9901 -0.24014,2.00976 0,2.9703 0.1132,0.4528 0.8425,0.54731 0.9901,0.9901 0.23882,0.71648 -0.32638,3.63402 0,3.9604 0.23336,0.23336 0.75673,-0.23337 0.99009,0 0.23337,0.23336 -0.14759,0.6949 0,0.99009 0.20874,0.41747 0.78137,0.57264 0.9901,0.9901 0.1476,0.29519 -0.23337,0.75673 0,0.9901 0.23337,0.23337 0.75673,-0.23337 0.9901,0 0.23337,0.23337 -0.23337,0.75673 0,0.9901 0.23337,0.23337 0.75673,-0.23337 0.9901,0 0.46674,0.46674 -0.29519,1.38982 0,1.9802 2.06028,4.12055 -0.0684,-1.05845 1.9802,0.9901 0.46674,0.46674 -0.20873,1.354 0,1.9802 0.23337,0.7001 0.66007,1.32013 0.9901,1.98019 0.33003,0.66007 0.54731,1.38982 0.9901,1.9802 0.56008,0.74678 1.32013,1.32013 1.9802,1.9802 0.33003,0.9901 0.45314,2.07537 0.99009,2.9703 0.48027,0.80045 1.32014,1.32013 1.9802,1.9802 0.66007,0.66006 1.32013,1.32013 1.9802,1.98019 1.32013,1.32014 2.64026,2.64027 3.9604,3.9604 0.66006,0.66007 1.2035,1.4624 1.98019,1.9802 0.27461,0.18307 0.66007,0 0.9901,0 0.66007,0.33003 1.36617,0.58074 1.9802,0.9901 0.38835,0.2589 0.54731,0.8425 0.9901,0.9901 1.25239,0.41746 2.70801,-0.41747 3.9604,0 0.44278,0.14759 0.57263,0.78136 0.9901,0.99009 0.59038,0.2952 1.38981,-0.29519 1.98019,0 0.41747,0.20874 0.57264,0.78137 0.9901,0.9901 0.29519,0.1476 0.84251,-0.29519 0.9901,0 0.29519,0.59038 -0.36614,1.43099 0,1.9802 0.40936,0.61403 1.36617,0.58075 1.9802,0.9901 2.27462,1.51641 -0.42456,0.56554 1.9802,2.9703 1.04365,1.04365 2.77963,1.09462 3.96039,1.9802 0.74678,0.56008 1.23342,1.42011 1.9802,1.98019 1.18076,0.88558 2.73233,1.16149 3.9604,1.9802 0.38835,0.2589 0.57263,0.78137 0.9901,0.9901 0.29519,0.1476 0.69491,-0.14759 0.9901,0 0.25777,0.12889 1.67294,1.29735 0.99009,1.9802 -0.52182,0.52183 -1.26425,0.81111 -1.98019,0.9901 -0.77883,0.1947 -4.91097,0 -5.9406,0 -0.66006,0 -1.33984,-0.16009 -1.9802,0 -0.71594,0.17898 -1.25655,0.84537 -1.98019,0.9901 -1.61812,0.32362 -3.30033,0 -4.9505,0 -0.66006,0 -1.354,-0.20873 -1.9802,0 -0.44278,0.14759 -0.54731,0.8425 -0.9901,0.9901 -0.67356,0.22452 -4.4255,-0.2625 -4.95049,0 -0.41746,0.20873 -0.57264,0.78136 -0.9901,0.99009 -0.26792,0.13397 -5.51411,0 -5.94059,0 -1.32014,0 -2.64027,0 -3.9604,0 -0.66007,0 -1.33984,-0.16008 -1.9802,0 -0.71594,0.17899 -1.26425,0.81112 -1.9802,0.9901 -0.96053,0.24014 -1.98019,0 -2.97029,0 -2.31023,0 -4.62046,0 -6.9307,0 -0.99009,0 -2.08472,-0.44278 -2.97029,0 -0.29519,0.1476 0.23337,0.75673 0,0.9901 -9.5e-4,9.5e-4 -2.96581,-10e-4 -2.9703,0 -0.44279,0.1476 -0.60175,0.7312 -0.9901,0.9901 -0.61403,0.40936 -1.45837,0.46827 -1.9802,0.9901 -0.23337,0.23337 0.23337,0.75673 0,0.9901 -0.23337,0.23337 -0.71549,-0.18307 -0.9901,0 -0.66006,0.66007 -1.32013,1.32013 -1.98019,1.9802 -0.33004,0 -0.69491,-0.1476 -0.9901,0 -4.12056,2.06028 1.05845,-0.0684 -0.9901,1.9802 -0.23337,0.23336 -0.66992,-0.08 -0.9901,0 -1.0125,0.25312 -2.03682,0.52336 -2.9703,0.99009 -0.41746,0.20874 -0.57263,0.78137 -0.9901,0.9901 -2.43856,1.21929 0.8938,-2.87399 -2.97029,0.9901 -0.23337,0.23337 0.29519,0.84251 0,0.9901 -0.59038,0.29519 -1.35401,-0.20873 -1.9802,0 -0.88557,0.29519 -1.14528,1.56274 -1.9802,1.9802 -0.29519,0.1476 -0.69491,-0.1476 -0.9901,0 -4.53129,2.26565 4.2014,-0.41037 -2.9703,1.9802 -0.53584,0.17861 -3.62309,0 -3.96039,0 -2.31023,0 -4.62046,0 -6.9307,0 -4.95049,0 -9.90099,0 -14.85148,0 -2.31023,0 -4.62046,0 -6.93069,0 -0.66007,0 -1.33295,0.12945 -1.9802,0 -1.02339,-0.20468 -1.94691,-0.78542 -2.9703,-0.9901 -0.64725,-0.12945 -1.33295,0.12945 -1.9802,0 -1.02339,-0.20468 -1.9578,-0.73698 -2.97029,-0.9901 -0.32018,-0.08 -0.66007,0 -0.9901,0 -0.66007,0 -1.32013,0 -1.9802,0 -3.30033,0 -6.60066,0 -9.90099,0 -0.8291,0 -4.19756,-0.18823 -4.9505,0 -0.71594,0.17899 -1.28009,0.75673 -1.98019,0.9901 -0.3131,0.10436 -0.66007,0 -0.9901,0 -0.66007,0 -1.32013,0 -1.9802,0 -1.65017,0 -3.30033,0 -4.9505,0 -0.66006,0 -1.354,-0.20873 -1.98019,0 -0.44279,0.14759 -0.53243,0.89856 -0.9901,0.9901 -1.2945,0.2589 -2.6659,-0.2589 -3.9604,0 -0.45767,0.0915 -0.54731,0.8425 -0.9901,0.9901 -0.62619,0.20873 -1.33984,-0.16009 -1.9802,0 -0.71594,0.17898 -1.28009,0.75673 -1.98019,0.9901 -0.93929,0.31309 -2.03101,-0.3131 -2.9703,0 -0.44279,0.14759 -0.60175,0.7312 -0.9901,0.99009 -0.61403,0.40936 -1.28009,0.75674 -1.9802,0.9901 -0.93929,0.3131 -2.031,-0.31309 -2.97029,0 -0.44279,0.1476 -0.57264,0.78137 -0.9901,0.9901 -0.29519,0.1476 -0.66007,0 -0.9901,0 -0.66007,0.33004 -1.36617,0.58075 -1.9802,0.9901 -0.38835,0.2589 -0.57264,0.78137 -0.9901,0.9901 -0.58418,0.29209 -2.28927,-0.22701 -2.9703,0 -7.1717,2.39057 1.561,-0.28545 -2.97029,1.9802 -0.59038,0.29519 -1.38982,-0.29519 -1.9802,0 -0.83493,0.41746 -1.14528,1.56273 -1.9802,1.9802 -0.29519,0.14759 -0.66007,0 -0.9901,0 -0.33003,0.33003 -0.57264,0.78136 -0.9901,0.9901 -0.59038,0.29519 -1.51346,-0.46674 -1.9802,0 -0.52182,0.52182 -0.46827,1.45837 -0.9901,1.98019 -0.10199,0.102 -4.70366,-0.0823 -4.95049,0 -2.28808,0.7627 0.44584,1.75728 -1.9802,2.9703 -0.63198,0.31599 -3.79187,0 -4.95049,0 -0.33004,0 -0.67701,-0.10436 -0.9901,0 -0.70011,0.23337 -1.28009,0.75673 -1.9802,0.9901 -0.3131,0.10437 -0.66992,-0.08 -0.9901,0 -1.01249,0.25312 -1.9578,0.73698 -2.9703,0.9901 -0.32018,0.08 -0.677,-0.10437 -0.9901,0 -7.17169,2.39057 1.561,-0.28545 -2.97029,1.9802 -0.29519,0.14759 -0.66007,0 -0.9901,0 -0.8104,0 -5.6509,-0.14485 -5.9406,0 -0.29519,0.14759 0.23337,0.75673 0,0.9901 -0.23336,0.23336 -0.66006,0 -0.99009,0 -0.33004,0 -0.66007,0 -0.9901,0 -1.9802,0 -3.9604,0 -5.9406,0 -0.66006,0 -1.32013,0 -1.9802,0 -0.66006,0 -1.354,0.20873 -1.98019,0 -0.44279,-0.1476 -0.54732,-0.84251 -0.9901,-0.9901 -0.6262,-0.20873 -1.38982,0.29519 -1.9802,0 -0.29519,-0.1476 0.14759,-0.69491 0,-0.9901 -0.20873,-0.41746 -0.57264,-0.78137 -0.9901,-0.9901 -1.05989,-0.52995 -2.11295,0.85735 -3.9604,-0.9901 -0.23336,-0.23337 0.23337,-0.75673 0,-0.9901 -0.52182,-0.52183 -1.36616,-0.58074 -1.98019,-0.9901 -1.48515,-0.9901 -0.9901,-1.9802 -2.9703,-2.97029 -0.59038,-0.2952 -1.38982,0.29519 -1.9802,0 -0.83492,-0.41747 -1.32013,-1.32014 -1.9802,-1.9802 -0.33003,-0.33004 -0.78136,-0.57264 -0.9901,-0.9901 -0.14759,-0.29519 0.23337,-0.75673 0,-0.9901 -0.52182,-0.52183 -1.36616,-0.58074 -1.98019,-0.9901 -0.38835,-0.2589 -0.66007,-0.66007 -0.9901,-0.9901 -0.33004,-0.33003 -0.84251,-0.54731 -0.9901,-0.9901 -0.20873,-0.62619 0.29519,-1.38982 0,-1.9802 -0.1476,-0.29519 -0.84251,0.29519 -0.9901,0 -0.29519,-0.59038 0.20873,-1.354 0,-1.98019 -0.22348,-0.67045 -2.59213,-2.21398 -2.9703,-2.9703 -0.29519,-0.59038 0.29519,-1.38982 0,-1.9802 -0.20873,-0.41746 -0.78137,-0.57264 -0.9901,-0.9901 -0.14759,-0.29519 0,-0.66006 0,-0.9901 0,-0.66006 0,-1.32013 0,-1.9802 0,-1.65016 0,-3.30033 0,-4.95049 0,-5.61056 0,-11.22112 0,-16.83168 0,-2.9703 0,-5.9406 0,-8.91089 0,-0.3914 0.21143,-4.52764 0,-4.9505 -0.20873,-0.41746 -0.78136,-0.57264 -0.9901,-0.9901 -0.29519,-0.59038 0.20874,-1.354 0,-1.9802 -0.23336,-0.7001 -0.75673,-1.28009 -0.99009,-1.98019 -0.20874,-0.6262 0.46673,-1.51347 0,-1.9802 -0.23337,-0.23337 -0.75674,0.23337 -0.9901,0 -0.23337,-0.23337 0.23336,-0.75673 0,-0.9901 -0.23337,-0.23337 -0.75673,0.23337 -0.9901,0 -3.8641,-3.8641 0.22918,-0.53173 -0.9901,-2.9703 -0.41746,-0.83492 -1.4624,-1.2035 -1.9802,-1.9802 -0.12295,-0.18442 -1.91675,-3.89695 -1.9802,-3.96039 -0.23337,-0.23337 -0.75673,0.23337 -0.9901,0 -0.23337,-0.23337 0.1476,-0.69491 0,-0.9901 -0.20873,-0.41746 -0.66006,-0.66007 -0.9901,-0.9901 -0.33003,-0.33003 -0.57263,-0.78137 -0.99009,-0.9901 -0.2952,-0.14759 -0.84251,0.29519 -0.9901,0 -0.29519,-0.59038 0.29519,-1.38982 0,-1.9802 -0.1476,-0.29519 -0.69491,0.1476 -0.9901,0 -4.12056,-2.06028 1.05845,0.0684 -0.9901,-1.9802 -0.23337,-0.23336 -0.75673,0.23337 -0.9901,0 -0.49505,-0.49505 0.49505,-2.47524 0,-2.97029 -0.23337,-0.23337 -0.69491,0.14759 -0.9901,0 -0.41746,-0.20873 -0.66007,-0.66007 -0.9901,-0.9901 -0.33003,-0.33003 -0.78137,-0.57264 -0.9901,-0.9901 -0.29519,-0.59038 0.20873,-1.35401 0,-1.9802 -2.39056,-7.1717 0.28545,1.561 -1.9802,-2.9703 -0.29519,-0.59038 0.29519,-1.38981 0,-1.98019 -0.20873,-0.41747 -0.78136,-0.57264 -0.99009,-0.9901 -0.19629,-0.39257 0.20241,-2.76789 0,-2.9703 -0.23337,-0.23337 -0.75674,0.23337 -0.9901,0 -0.23337,-0.23337 0,-0.66007 0,-0.9901 0,-1.9802 0,-3.96039 0,-5.94059 0,-0.33004 -0.1476,-0.69491 0,-0.9901 0.20873,-0.41746 0.78136,-0.57264 0.9901,-0.9901 0.14759,-0.29519 -0.23337,-0.75673 0,-0.9901 0.23336,-0.23337 0.75673,0.23337 0.99009,0 0.23337,-0.23337 -0.14759,-0.69491 0,-0.9901 0.20874,-0.41746 0.78137,-0.57264 0.9901,-0.9901 0.29519,-0.59038 -0.46673,-1.51346 0,-1.9802 0.23337,-0.23336 0.69491,0.1476 0.9901,0 0.41746,-0.20873 0.66007,-0.66006 0.9901,-0.9901 0.33003,-0.33003 0.7312,-0.60175 0.9901,-0.99009 0.40936,-0.61404 0.46827,-1.45837 0.9901,-1.9802 0.23337,-0.23337 0.75673,0.23337 0.9901,0 0.23337,-0.23337 -0.23337,-0.75673 0,-0.9901 0.23337,-0.23337 0.69491,0.14759 0.9901,0 0.24271,-0.12136 1.73749,-1.85884 1.9802,-1.9802 0.59038,-0.29519 1.38981,0.29519 1.98019,0 0.41747,-0.20873 0.57264,-0.78137 0.9901,-0.9901 0.59038,-0.29519 1.51346,0.46674 1.9802,0 0.23337,-0.23337 -0.23337,-0.75673 0,-0.9901 0.23337,-0.23337 0.69491,0.1476 0.9901,0 0.41746,-0.20873 0.57264,-0.78136 0.9901,-0.9901 0.59038,-0.29519 1.38982,0.29519 1.9802,0 0.41746,-0.20873 0.57263,-0.78136 0.9901,-0.9901 0.53711,-0.26855 3.68948,0.27092 3.96039,0 0.23337,-0.23336 -0.23337,-0.75673 0,-0.99009 0.49505,-0.49505 2.47525,0.49505 2.9703,0 0.23337,-0.23337 -0.1476,-0.69491 0,-0.9901 0.41746,-0.83493 1.56273,-1.14528 1.9802,-1.9802 0.29519,-0.59038 -0.46674,-1.51346 0,-1.9802 0.23336,-0.23337 0.75673,0.23337 0.9901,0 0.23824,-0.23825 -0.23825,-3.72215 0,-3.9604 0.23336,-0.23336 0.75673,0.23337 0.99009,0 0.23337,-0.23336 0,-0.66006 0,-0.99009 0,-0.33004 0,-0.66007 0,-0.9901 0,-1.65017 0,-3.30033 0,-4.9505 0,-0.66006 -0.20873,-1.354 0,-1.9802 0.56203,-1.68607 1.32014,-3.30033 1.9802,-4.95049 z"
         style="fill:#0000ff;stroke:#000000;stroke-width:1px;stroke-linecap:butt;stroke-linejoin:miter;stroke-opacity:1" />
      <g
         transform="translate(-156.43564,191.08911)"
         id="g3155">
        <path
           style="fill:none;stroke:#000000;stroke-width:1px;stroke-linecap:butt;stroke-linejoin:miter;stroke-opacity:1"
           d="m 211.88119,156.32258 c 21.6387,-43.6504 38.44047,-0.44585 38.61386,0 l 0,0 c 25.16382,46.77572 37.1994,22.65892 49.50495,0 10.83754,-14.16027 18.41779,-36.46378 49.50495,0 l 0,0"
           id="path3064"
           inkscape:connector-curvature="0"
           sodipodi:nodetypes="cccccc" />
        <path
           style="fill:none;stroke:#000000;stroke-width:1px;stroke-linecap:butt;stroke-linejoin:miter;stroke-opacity:1"
           d="m 213.36634,177.5999 c 21.6387,-43.6504 38.44047,-0.44585 38.61386,0 l 0,0 c 25.16382,46.77572 37.1994,22.65892 49.50495,0 10.83754,-14.16027 18.41779,-36.46378 49.50495,0 l 0,0"
           id="path3064-9"
           inkscape:connector-curvature="0"
           sodipodi:nodetypes="cccccc" />
        <path
           style="fill:none;stroke:#000000;stroke-width:1px;stroke-linecap:butt;stroke-linejoin:miter;stroke-opacity:1"
           d="m 214.60396,222.40678 c 21.6387,-43.6504 38.44047,-0.44585 38.61386,0 l 0,0 c 25.16382,46.77572 37.1994,22.65892 49.50495,0 10.83754,-14.16026 18.41779,-36.46378 49.50495,0 l 0,0"
           id="path3064-2"
           inkscape:connector-curvature="0"
           sodipodi:nodetypes="cccccc" />
        <path
           style="fill:none;stroke:#000000;stroke-width:1px;stroke-linecap:butt;stroke-linejoin:miter;stroke-opacity:1"
           d="m 213.11881,199.12965 c 21.6387,-43.65039 38.44047,-0.44585 38.61386,0 l 0,0 c 25.16382,46.77572 37.1994,22.65892 49.50495,0 10.83754,-14.16027 18.41779,-36.46377 49.50495,0 l 0,0"
           id="path3064-9-4"
           inkscape:connector-curvature="0"
           sodipodi:nodetypes="cccccc" />
        <path
           style="fill:none;stroke:#000000;stroke-width:1px;stroke-linecap:butt;stroke-linejoin:miter;stroke-opacity:1"
           d="m 213.61387,244.18897 c 21.6387,-43.6504 38.44047,-0.44585 38.61386,0 l 0,0 c 25.16382,46.77572 37.1994,22.65892 49.50495,0 10.83754,-14.16027 18.41779,-36.46378 49.50495,0 l 0,0"
           id="path3064-5"
           inkscape:connector-curvature="0"
           sodipodi:nodetypes="cccccc" />
        <path
           style="fill:none;stroke:#000000;stroke-width:1px;stroke-linecap:butt;stroke-linejoin:miter;stroke-opacity:1"
           d="m 213.11882,266.45639 c 21.6387,-43.6504 38.44047,-0.44585 38.61386,0 l 0,0 c 25.16382,46.77572 37.1994,22.65892 49.50495,0 10.83754,-14.16027 18.41779,-36.46378 49.50495,0 l 0,0"
           id="path3064-9-5"
           inkscape:connector-curvature="0"
           sodipodi:nodetypes="cccccc" />
      </g>
    </g>
  </g>
</svg>
